<svg width="1440" height="800" viewBox="0 0 1440 800" xmlns="http://www.w3.org/2000/svg">
  <path d="M0,96L48,112C96,128,192,160,288,186.7C384,213,480,235,576,224C672,213,768,171,864,149.3C960,128,1056,128,1152,149.3C1248,171,1344,213,1392,234.7L1440,256L1440,0L1392,0C1344,0,1248,0,1152,0C1056,0,960,0,864,0C768,0,672,0,576,0C480,0,384,0,288,0C192,0,96,0,48,0L0,0Z" fill="#ffffff" fill-opacity="0.3"/>
  <path d="M0,320L48,309.3C96,299,192,277,288,266.7C384,256,480,256,576,240C672,224,768,192,864,197.3C960,203,1056,245,1152,261.3C1248,277,1344,267,1392,261.3L1440,256L1440,0L1392,0C1344,0,1248,0,1152,0C1056,0,960,0,864,0C768,0,672,0,576,0C480,0,384,0,288,0C192,0,96,0,48,0L0,0Z" fill="#ffffff" fill-opacity="0.2"/>
  <path d="M0,480L48,469.3C96,459,192,437,288,426.7C384,416,480,416,576,400C672,384,768,352,864,357.3C960,363,1056,405,1152,421.3C1248,437,1344,427,1392,421.3L1440,416L1440,0L1392,0C1344,0,1248,0,1152,0C1056,0,960,0,864,0C768,0,672,0,576,0C480,0,384,0,288,0C192,0,96,0,48,0L0,0Z" fill="#ffffff" fill-opacity="0.1"/>
  <path d="M0,640L48,629.3C96,619,192,597,288,586.7C384,576,480,576,576,560C672,544,768,512,864,517.3C960,523,1056,565,1152,581.3C1248,597,1344,587,1392,581.3L1440,576L1440,0L1392,0C1344,0,1248,0,1152,0C1056,0,960,0,864,0C768,0,672,0,576,0C480,0,384,0,288,0C192,0,96,0,48,0L0,0Z" fill="#ffffff" fill-opacity="0.05"/>
</svg>
