<svg xmlns="http://www.w3.org/2000/svg" width="208" height="62" fill="none"><path fill="#fff" d="M0 0h208v62H0z"/><path fill="#143A69" d="M17.264 47.626c5.901 0 11.016-2.165 15.213-6.099l-7.41-7.476c-1.573 1.574-4.525 3.082-7.082 3.082-3.017 0-5.115-2.164-5.115-5.05 0-4.458 4.787-9.443 9.705-9.443 1.705 0 3.869.722 4.853 2.23l9.18-6.033c-2.622-3.804-6.95-6.689-13.377-6.689C12.28 12.148 1 21.198 1 32.28c0 8.59 6.82 15.346 16.264 15.346m47.216-34.69-3.87 18.492c-.524 3.016-3.476 5.705-6.754 5.705-2.099 0-3.41-1.18-3.41-3.41 0-.984.196-1.836 4.197-20.788H42.576c-4.197 20-4.721 21.706-4.721 24.198 0 6.1 4.13 10.493 10.755 10.493 3.672 0 6.95-1.246 9.377-3.476l-.59 2.69h12.656l7.082-33.905zm30.887 5.376 1.114-5.377H83.825L76.742 46.84h12.657l2.951-14.166c1.442-5.966 6.558-10.033 13.116-10.033l1.377-10.492c-4.525 0-8.526 2.295-11.476 6.164m47.675 3.083c0-5.444-5.509-9.247-13.247-9.247-11.805 0-20.985 9.312-20.985 20.92 0 8.656 6.033 14.558 15.738 14.558 4.788 0 10.821-1.836 14.494-4.918l-6.1-7.673c-2.492 1.77-5.574 3.148-8.59 3.148-3.082 0-4.919-2.033-4.919-5.312h6.821c10.558.393 16.788-3.87 16.788-11.476m-13.575.197c1.967 0 3.41.72 3.41 1.705-.065 1.835-2.033 2.95-5.246 2.95h-6.034c1.837-2.688 4.657-4.655 7.87-4.655"/><path fill="#7BDB81" d="M146.371 46.84h12.656L168.536 1h-12.657zm37.772.785c10.885 0 22.1-9.115 22.1-20.197 0-8.525-6.821-15.28-16.329-15.28-10.886 0-22.165 8.985-22.165 20.133 0 8.59 6.82 15.345 16.394 15.345m.591-10.492c-3.148 0-5.378-2.164-5.378-5.05 0-4.524 4.984-9.443 10.033-9.443 3.082 0 5.246 2.1 5.246 4.985 0 4.459-4.983 9.508-9.901 9.508M128.319 52.492h1.509q1.46.001 2.17.362t1.17 1.178q.459.813.458 1.902 0 .774-.256 1.423a3 3 0 0 1-.711 1.078 2.5 2.5 0 0 1-.979.592q-.527.162-1.829.163h-1.532zm1.268 1.232v4.226h.591q.874-.001 1.267-.2.395-.202.644-.676.25-.473.25-1.167 0-1.067-.595-1.655-.537-.529-1.725-.528zm4.825.513h1.072v.629a1.35 1.35 0 0 1 .457-.56q.287-.19.626-.19.24 0 .503.127l-.385 1.073a.85.85 0 0 0-.358-.11q-.285 0-.482.355-.198.355-.197 1.39l.004.24v2h-1.24zm3.765-2.034q.326.001.56.236a.78.78 0 0 1 .235.571q0 .33-.232.564a.75.75 0 0 1-.555.233.76.76 0 0 1-.564-.238.8.8 0 0 1-.236-.578q.001-.326.233-.556a.76.76 0 0 1 .559-.232m-.623 2.034h1.24v4.953h-1.24zm1.839 0h1.272l1.247 2.922 1.257-2.922h1.261l-2.131 4.953h-.793zm10.709 2.826h-3.987q.086.529.459.845.374.311.954.312.694 0 1.192-.49l1.042.493q-.39.555-.935.823-.545.265-1.294.265-1.162 0-1.891-.734-.73-.732-.731-1.836 0-1.131.731-1.878.729-.748 1.831-.748 1.168.001 1.902.746.732.744.732 1.968zm-1.236-.97a1.23 1.23 0 0 0-.485-.66 1.43 1.43 0 0 0-.842-.254q-.52 0-.914.286-.245.178-.455.628z"/><path fill="#143A69" d="M153.172 54.237h1.276l1.282 3.101 1.421-3.101h1.272L155.324 61h-1.272l1.008-2.175zm8.295-.122q.702 0 1.32.35t.965.948q.348.602.348 1.296 0 .7-.349 1.307a2.53 2.53 0 0 1-.952.952 2.64 2.64 0 0 1-1.327.343q-1.068 0-1.822-.755a2.5 2.5 0 0 1-.756-1.838q0-1.158.853-1.93.749-.672 1.72-.673m.019 1.167q-.58 0-.965.4-.386.404-.387 1.03 0 .644.381 1.043.38.4.966.4.583-.001.972-.404.387-.405.387-1.039 0-.636-.381-1.034-.38-.397-.973-.396m3.622-1.045h1.259v2.381q.001.696.097.966a.85.85 0 0 0 .308.421q.212.15.524.15.311 0 .529-.148a.86.86 0 0 0 .321-.433q.077-.216.078-.915v-2.422h1.241v2.096q0 1.296-.205 1.774a1.93 1.93 0 0 1-.739.893q-.488.31-1.24.311-.815.001-1.318-.364a1.92 1.92 0 0 1-.709-1.013q-.146-.45-.146-1.638zm5.31 0h1.072v.63q.174-.37.458-.56a1.1 1.1 0 0 1 .625-.192q.24 0 .503.128l-.385 1.073a.85.85 0 0 0-.358-.11q-.285.001-.482.355-.198.355-.197 1.39l.004.241v1.998h-1.24zm6.014-1.745h1.296v2.528h2.239v-2.528h1.287v6.698h-1.287v-2.938h-2.239v2.938h-1.296zm11.171 4.572h-3.987q.087.528.46.844.374.311.953.312.695 0 1.193-.49l1.042.493q-.391.555-.935.823-.545.265-1.294.265-1.161 0-1.891-.734-.731-.732-.732-1.835 0-1.132.732-1.879.729-.748 1.831-.748 1.168.001 1.902.746.73.744.731 1.968zm-1.235-.971a1.23 1.23 0 0 0-.485-.66 1.43 1.43 0 0 0-.843-.254 1.5 1.5 0 0 0-.913.286q-.245.178-.455.628zm5.916-1.856h1.241v4.953h-1.241v-.527q-.364.345-.731.496t-.794.152q-.963 0-1.664-.743-.701-.742-.701-1.845 0-1.146.679-1.877.679-.73 1.648-.73.448 0 .838.166.392.166.725.499zm-1.307 1.016q-.58 0-.96.408-.383.405-.383 1.043 0 .641.389 1.056.39.413.958.413.586 0 .972-.407t.387-1.066q0-.647-.387-1.047a1.3 1.3 0 0 0-.976-.4m3.668-2.929h1.241v6.866h-1.241zm2.516.085h1.24v1.828h.737v1.073h-.737v3.88h-1.24v-3.88h-.634v-1.073h.634zm2.657-.085h1.241v2.42q.363-.315.73-.472t.743-.157q.735 0 1.24.51.43.441.431 1.295v3.27h-1.223v-2.168q0-.86-.081-1.164a.8.8 0 0 0-.279-.455.8.8 0 0 0-.487-.15.93.93 0 0 0-.647.25 1.34 1.34 0 0 0-.373.682q-.054.223-.054 1.019v1.986h-1.241z"/><path fill="#143A69" fill-rule="evenodd" d="M124.416 52.27H1.062v1.485h123.354zM124.416 57.564H79.893v1.486h44.523zM124.416 54.893h-84.07v1.486h84.07z" clip-rule="evenodd"/></svg>