<?xml version="1.0" encoding="UTF-8"?>
<svg width="600" height="400" viewBox="0 0 600 400" xmlns="http://www.w3.org/2000/svg">
    <!-- Medical Services Illustration -->
    <defs>
        <linearGradient id="grad1" x1="0%" y1="0%" x2="100%" y2="0%">
            <stop offset="0%" style="stop-color:#001d4f;stop-opacity:1" />
            <stop offset="100%" style="stop-color:#4a90e2;stop-opacity:1" />
        </linearGradient>
    </defs>
    
    <!-- Background -->
    <rect x="0" y="0" width="600" height="400" fill="#f8f9fa"/>
    
    <!-- Hospital Building -->
    <rect x="150" y="100" width="300" height="250" fill="url(#grad1)" rx="10"/>
    <rect x="250" y="50" width="100" height="50" fill="#4a90e2"/>
    
    <!-- Windows -->
    <rect x="180" y="130" width="50" height="50" fill="#fff" rx="5"/>
    <rect x="275" y="130" width="50" height="50" fill="#fff" rx="5"/>
    <rect x="370" y="130" width="50" height="50" fill="#fff" rx="5"/>
    
    <rect x="180" y="200" width="50" height="50" fill="#fff" rx="5"/>
    <rect x="275" y="200" width="50" height="50" fill="#fff" rx="5"/>
    <rect x="370" y="200" width="50" height="50" fill="#fff" rx="5"/>
    
    <!-- Door -->
    <rect x="275" y="270" width="50" height="80" fill="#fff"/>
    <circle cx="315" cy="310" r="5" fill="#001d4f"/>
    
    <!-- Cross Symbol -->
    <rect x="285" y="60" width="30" height="30" fill="#fff"/>
    <rect x="295" y="65" width="10" height="20" fill="#ef476f"/>
    <rect x="290" y="70" width="20" height="10" fill="#ef476f"/>
</svg>
