<svg id="e3vpdCImahb1" xmlns="http://www.w3.org/2000/svg" xmlns:xlink="http://www.w3.org/1999/xlink" viewBox="180 150 700 400" shape-rendering="geometricPrecision" text-rendering="geometricPrecision" style=""><g transform="matrix(1.564197 0 0 1.564197-98.017825-107.273249)"><g transform="matrix(.690481 0 0 0.690481 83.394204 31.436814)"><g id="e3vpdCImahb8" transform="translate(-1.439548 0.000007)"><rect id="e3vpdCImahb9" width="48.07" height="147.89" rx="24.03" ry="24.03" transform="matrix(.953499-.301399 0.301399 0.953499 311.629834 391.486108)" fill="#131313"/><g id="e3vpdCImahb10"><g transform="matrix(.985252 0.171111-.171111 0.985252 77.050638-65.284183)"><path d="M596.49,594.82L599,579.1l27.74-15.41c2.09-.73,34.53.28.75,27.87-12.88,8.01-23.13,5.24-31,3.26Z" transform="translate(-119.812792-76.75507)" fill="#fba4c7"/><rect width="10.67" height="27.72" rx="5.33" ry="5.33" transform="matrix(-.2 0.98-.98-.2 529.265991 500.330736)" fill="#fba4c7"/><rect width="9.78" height="25.6" rx="4.89" ry="4.89" transform="matrix(.113897 0.993493-.993493 0.113897 530.021987 483.960182)" fill="#fba4c7"/><rect width="9.78" height="25.6" rx="4.89" ry="4.89" transform="matrix(.015009 0.999887-.999887 0.015009 546.414072 484.276056)" fill="#fba4c7"/><circle r="4.84" transform="translate(509.577208 490.92493)" fill="#fba4c7"/><circle r="4.84" transform="translate(525.487208 489.54493)" fill="#fba4c7"/><path d="M598.14,586.07l.88-6.93l28.38-15.89v0c2.684221,4.792412,3.354612,10.454877,1.863679,15.741594s-5.021047,9.764578-9.813679,12.448406v0c-5.69,3.19-18.12.32-21.31-5.37Z" transform="translate(-119.812792-76.75507)" fill="#fba4c7"/></g><path d="M476.09,574.35v0c.403274-6.362846,3.32172-12.303746,8.111364-16.511804s11.05682-6.337408,17.418636-5.918196l99.628713,24.368676c0,.1.113443,11.572057.113443,11.572057s.078601,12.388057.118601,12.098057L498.52,599.89c-6.364697-.403216-12.307194-3.323061-16.515538-8.114907s-6.336442-11.061612-5.914462-17.425093Z" transform="matrix(.999952 0.009803-.009803 0.999952-125.273252-72.908527)" fill="#131313"/></g></g><path d="M506.951463,613.485008c0,0-84.611469-.428496-104.591229-1.178717-27.14961-32.963954,27.037631-134.902732,27.037631-134.902732c16.034432-19.520752,42.427161-11.215914,48.317356,4.210786c18.18,42.91,29.236241,103.287002,29.236242,131.870663Z" transform="translate(-119.884181-81.684237)" fill="#131313" stroke-miterlimit="10"/><path d="M356.914528,407.145896q24.382369,60.691052,28.389624,102.967588" fill="none" stroke="#fff" stroke-linecap="round"/><g transform="translate(-1.10419-.673653)"><path id="e3vpdCImahb24" d="M300.0316,512.69763c-4.7078,13.33168-19.33167,20.32271-32.66335,15.61492l-.00943-.00333c-13.33168-4.7078-20.32271-19.33167-15.61492-32.66335l15.78267-44.65662-.00786-.01492l19.63399-55.60015c4.7078-13.33168,19.33167-20.32271,32.66335-15.61492l.00943.00333c13.33168,4.7078,20.32271,19.33167,15.61492,32.66335L300.0316,512.69763" fill="#131313" stroke="#fff" stroke-linecap="round" stroke-miterlimit="10" stroke-dashoffset="-300" stroke-dasharray="300"/><g id="e3vpdCImahb25" transform="matrix(.998831 0.048342-.048342 0.998831 32.365553-7.686899)"><path d="M374.11,579.47v0c.340827-8.131849,7.208051-14.448441,15.34-14.11l107.83,8.9c8.14.34,14.23,2.81,13.89,10.94v0c-.34,8.13-6.28,10.75-14.41,10.41l-108.54-.79c-3.90692-.163638-7.588711-1.873005-10.235017-4.75187s-4.040234-6.691278-3.874983-10.59813Z" transform="translate(-119.812792-76.75507)" fill="#fba4c7"/><path d="M489.732318,585.17519c0,0-.312318,12.39481-.272318,12.08481l-103.207081,2.868288c-5.385071.114576-20.24327-6.059909-22.658489-20.522683s7.941889-33.085025,26.114587-30.42324l100.598089,21.251101c0,.0757-.303725,7.032879-.49314,11.364294-.085825,1.962599-.076686,3.476435-.076686,3.476435" transform="translate(-119.395923-74.790621)" fill="#131313" stroke="#fff" stroke-linecap="round" stroke-miterlimit="10" stroke-dashoffset="100" stroke-dasharray="110,200"/><g id="e3vpdCImahb28" transform="matrix(-1.146401 0.194837 0.194837 1.146401 460.360977 432.289705)"><path d="M396.59422,501.128501q3.121171-1.663144,12.376545-2.634951c7.907297.789169,10.748306,10.865737,6.767464,15.10974-5.958419,6.352312-14.080202,7.513415-20.097061,5.633313-3.330133-1.888646-4.53609-7.442707-4.830939-9.802991s2.66282-6.641967,5.783991-8.305111Z" transform="matrix(.869464 0.493996-.493996 0.869464-31.438806-589.663349)" fill="#fba4c7"/><g id="e3vpdCImahb30" transform="matrix(.963126-.269051 0.269051 0.963126-9.625199 19.078225)"><rect width="19.779161" height="6.76" rx="3.38" ry="3.38" transform="matrix(.922942 0.38494-.38494 0.922942 51.610327 36.000634)" fill="#fba4c7"/><rect id="e3vpdCImahb32" width="13.759417" height="6.76" rx="3.38" ry="3.38" transform="matrix(.995519 0.094558-.094558 0.995519 43.498292 36.081548)" fill="#fba4c7"/></g><g id="e3vpdCImahb35" transform="matrix(.964307-.264788 0.264788 0.964307-7.765383 17.890615)"><path d="M20.137723,0c2.176695,0,3.941256,1.513278,3.941256,3.38s-1.764561,3.38-3.941256,3.38h-16.196467C1.764561,6.76,0,5.246722,0,3.38s1.764561-3.38,3.941256-3.38" transform="matrix(.952762 0.303717 0.303717-.952762 38.484436 43.572369)" fill="#fba4c7" stroke-linecap="round" stroke-dashoffset="-10" stroke-dasharray="10"/><rect id="e3vpdCImahb37" width="15.479344" height="6.76" rx="3.38" ry="3.38" transform="matrix(.999929-.011895 0.011895 0.999929 29.755485 38.388026)" fill="#fba4c7"/></g><g id="e3vpdCImahb41" transform="matrix(.998322-.057913 0.057913 0.998322-3.606516 6.452453)"><rect width="22.359074" height="6.76" rx="3.38" ry="3.38" transform="matrix(.993845 0.110775-.110775 0.993845 41.01481 41.404441)" fill="#fba4c7"/><path id="e3vpdCImahb43" d="M0.019843,2.745244c0-1.866722,1.32336-2.743548,4.097686-2.750129L13.819271,0c1.866722,0,3.492938,1.944564,3.492938,3.811286s-1.725774,2.997789-3.592496,2.997789C10.837302,6.033437,7.17266,5.365884,4.903527,5.62013c-3.338966.199729-4.883684-1.008164-4.883684-2.874886Z" transform="matrix(.984808-.173648 0.173648 0.984808 29.810301 44.130836)" fill="#fba4c7"/><path d="M0.908274,0.987824C7.146635,-0.998218,15.038825,-0.599402,18.979074,0c2.331088.330647,4.560485.944664,5.640569,1.455316" transform="matrix(.993845 0.110775-.110775 0.993845 41.01481 41.404441)" fill="none" stroke="#000" stroke-width="0.8" stroke-linecap="round"/></g><g id="e3vpdCImahb45" transform="matrix(.999098 0.042455-.042455 0.999098 5.499275 0.215483)"><path d="M0,3.38C0,1.513278,1.98085,0.721595,4.903106,0.520028L13.819271,0c1.866722,0,3.38,1.513278,3.38,3.38s-1.513278,3.38-3.38,3.38c-3.909096-.043045-6.519876-.135405-8.900665.041153C1.598553,6.892217,0,5.246722,0,3.38Z" transform="matrix(.964234-.265051 0.265051 0.964234 30.94235 52.287344)" fill="#fba4c7"/><path d="M0,3.38c0-1.866722.816326-2.762664,2.497136-3.251176C8.508108,-1.601947,14.66006,-1.089111,18.75,0c1.866722,0,3.38,1.513278,3.38,3.38s-1.513278,3.38-3.38,3.38c-5.333375.310249-8.302034-2.391669-14.965992.039581C1.917286,6.799581,0,5.246722,0,3.38Z" transform="matrix(.993845 0.110775-.110775 0.993845 42.250437 48.146493)" fill="#fba4c7"/><path d="M-2.276875,2.151539c1.742602-.96358,3.093201-1.534203,4.774011-2.022715C8.508108,-1.601947,14.66006,-1.089111,18.75,0" transform="matrix(.993845 0.110775-.110775 0.993845 42.250437 48.146493)" fill="none" stroke="#000" stroke-width="0.8" stroke-linecap="round"/></g></g></g></g><g transform="translate(-105.714778-72.75507)"><path d="M682.1,596.33h-124.34l29.36-77.86c.990379-2.619563,3.499472-4.352032,6.3-4.35h115c1.055118.000246,2.042738.518991,2.641763,1.387577s.732952,1.976085.358237,2.962423Z" transform="translate(3.612189 4.399222)" fill="#e6dce0"/><path d="M681.28166,642.46958c-2.19446,2.19259-5.17043,3.42304-8.27254,3.42038h-177.36c-4.54932-.00389-8.48986-2.60607-10.41852-6.40223h198.21425c-.55383,1.09205-1.28078,2.10019-2.16319,2.98185Z" transform="translate(2.304146-38.786451)" fill="#a5a2a3"/><path d="M0,-31.363089c17.321356,0,31.363089,14.041733,31.363089,31.363089s-14.041733,31.363089-31.363089,31.363089" transform="matrix(0-.456033 0.456033 0 641.747394 569.194907)" fill="#fff" stroke-width="0"/></g><g id="e3vpdCImahb53" transform="translate(0 0.000001)"><g transform="translate(-119.812791-76.75507)"><rect width="19.78" height="46.88" rx="9.89" ry="9.89" transform="matrix(-.996709-.081069 0.081069-.996709 464.156975 461.707336)" fill="#fba4c7"/><path d="M451.890371,477.915683l-.136835.090595c5.42.44,12.356835-3.720595,12.796833-9.140595L467.11,446.93l-22.71-1.6-2.55963,21.925683c-.400001,5.42,4.599999,10.219999,10.050001,10.66Z" fill="#131313"/></g><path d="M459.18,445.46v0c0,0,5.82,1,6.26-4.38l.57-7c.444361-5.431885-3.580868-10.203188-9.01-10.68v0c-5.42-.45-10.06,1.63-10.5,7.05l-.08,1c-.49,5.45,7.34,13.55,12.76,14.01Z" transform="translate(-119.812792-76.75507)" fill="#cc6e94"/><g id="e3vpdCImahb58" transform="matrix(.976555-.215269 0.215269 0.976555-203.860008 31.720325)"><circle r="31.54" transform="translate(466.38 410.72)" fill="#fba4c7"/><path d="M482.32,414.84l1.94,7.08v.08c.221959,1.052244-.180599,2.138382-1.03473,2.791791s-2.007759.757756-2.96527.268209l-1.29-.65" fill="none" stroke="#000" stroke-width="1.11034" stroke-linecap="round" stroke-linejoin="round"/><path id="e3vpdCImahb61" d="M477.39,433.45c0,0-10.957953.4139-12.11-9.48" transform="matrix(.961043-.2764 0.2764 0.961043-100.137625 146.978668)" fill="none" stroke="#000" stroke-width="1.11034" stroke-linecap="round" stroke-miterlimit="10" stroke-dashoffset="10" stroke-dasharray="16.998957"/><g id="e3vpdCImahb62" transform="matrix(.999695-.0247 0.0247 0.999695-9.790949 11.020391)"><path d="M513.3,378.63c-2.94-8-15.22-13.91-24.39-11.94-3.025808-7.695556-11.094467-12.153889-19.22-10.62-4.858438.950553-9.053051,3.989546-11.47,8.31-3.276535-3.699241-8.816588-4.329185-12.84-1.46-4,2.87-5.06,6.81-3.89,11.51-3.64.38-6.83.88-8.76,5.46-2.92,6.92-.63,18,8.3,21.74c12.66,5.24,10.502473-6.125912,20.183337-8.262035c17.832835-2.572859,25.6284,20.605198,45.266663,7.912035c7.006398-5.229065,9.77434-14.421719,6.82-22.65Zm-45.48,11.45c.009983-.069644.009983-.140356,0-.21h.09c-.019247.074135-.049589.144935-.09.21Z" fill="#2e59fe"/><path d="M510.26,379c0,0-9.09-12.17-22.44-8.48-11.08,2.57-14.87,11.83-11.34,17.29c4,5.91,19.58-2.29,11.46-17.28-2.91-8.38-11.64-11.73-17.81-11.11s-10.93,4.17-13,8.79-2.79,11.58.92,11.84s5.38-5.2-.8-11.81c-1.759186-1.955976-4.225163-3.130478-6.852486-3.263721s-5.19947.785755-7.147514,2.553721c-2.772195,2.936035-3.837728,7.092367-2.82,11c.88,2.73,2.12,8.46,6.35,7.49s-.09-8.55-8.11-7.58-8.21,10.31-8.21,10.31" transform="translate(2.240844 0.502256)" fill="none" stroke="#fff" stroke-linecap="round" stroke-miterlimit="10"/></g><circle r="12.75" transform="translate(435.28 403.78)" fill="#fba4c7"/><path d="M430,398.47c2.645471-2.394931,6.66904-2.416471,9.34-.05c4.42,3.7,2.5,8.09,2.5,8.09" fill="none" stroke="#000" stroke-width="1.11034" stroke-linecap="round" stroke-linejoin="round"/></g><path d="M346.863413,370.523498l-21.919181-1.499949-1.399654,12.05676l3.749502,1.730539" transform="translate(.000001 0.000001)" fill="none" stroke="#fff" stroke-linecap="round"/></g></g><g transform="matrix(.312072 0 0 0.312072 346.175657-52.205532)" clip-path="url(#e3vpdCImahb153)"><g><rect width="225.85" height="225.85" rx="0" ry="0" transform="translate(324.699999 762.205)" fill="#ffb201"/><g mask="url(#e3vpdCImahb85)"><rect width="225.85" height="225.85" rx="0" ry="0" transform="translate(98.85 762.05)" fill="#1a76f3"/><rect id="e3vpdCImahb73" width="223.29" height="223.29" rx="111.64" ry="111.64" transform="translate(100.13 763.33)" fill="#fff"/><rect id="e3vpdCImahb74" width="223.29" height="223.29" rx="111.64" ry="111.64" transform="matrix(0 0 0 0 323.420007 986.620016)" fill="#fff"/><rect id="e3vpdCImahb75" width="223.29" height="223.29" rx="111.64" ry="111.64" transform="matrix(0 0 0 0 323.420007 986.620016)" fill="#fff"/><rect width="223.29" height="223.29" rx="111.64" ry="111.64" transform="matrix(0 0 0 0 323.420007 986.620016)" fill="#fff"/><rect width="223.29" height="223.29" rx="111.64" ry="111.64" transform="matrix(0 0 0 0 323.420007 986.620016)" fill="#fff"/><rect width="223.29" height="223.29" rx="111.64" ry="111.64" transform="matrix(0 0 0 0 323.420007 986.620016)" fill="#fff"/><rect width="223.29" height="223.29" rx="111.64" ry="111.64" transform="matrix(0 0 0 0 323.420007 986.620016)" fill="#fff"/><rect width="223.29" height="223.29" rx="111.64" ry="111.64" transform="matrix(0 0 0 0 323.420007 986.620016)" fill="#fff"/><rect width="223.29" height="223.29" rx="111.64" ry="111.64" transform="matrix(0 0 0 0 323.420007 986.620016)" fill="#fff"/><rect width="223.29" height="223.29" rx="111.64" ry="111.64" transform="matrix(0 0 0 0 323.420007 986.620016)" fill="#fff"/><rect width="223.29" height="223.29" rx="111.64" ry="111.64" transform="matrix(0 0 0 0 323.420007 986.620016)" fill="#fff"/><rect width="223.29" height="223.29" rx="111.64" ry="111.64" transform="matrix(0 0 0 0 323.420007 986.620016)" fill="#fff"/><mask id="e3vpdCImahb85" mask-type="luminance" x="-150%" y="-150%" height="400%" width="400%"><rect width="225.85" height="225.85" rx="0" ry="0" transform="translate(98.92 762.05)" fill="#fff"/></mask></g><g clip-path="url(#e3vpdCImahb102)"><g><rect width="225.85" height="225.85" rx="0" ry="0" transform="translate(324.7 987.9)" fill="#fe97c9"/><g transform="translate(.000001 0.000001)"><g><rect id="e3vpdCImahb99" width="225.71" height="225.71" rx="112.85" ry="112.85" transform="translate(211.999999 988.35)" fill="#fff"/><rect id="e3vpdCImahb100" width="225.71" height="225.71" rx="112.85" ry="112.85" transform="translate(437.624998 988.35)" fill="#1a76f3"/><rect id="e3vpdCImahb101" width="225.71" height="225.71" rx="112.85" ry="112.85" transform="matrix(0 0 0 0 437.099998 1101.204956)" fill="#112148"/></g></g></g><clipPath id="e3vpdCImahb102"><rect width="225.85" height="225.85" rx="0" ry="0" transform="translate(324.7 987.9)" fill="none"/></clipPath></g><g clip-path="url(#e3vpdCImahb112)"><rect width="225.85" height="225.85" rx="0" ry="0" transform="translate(98.85 987.9)" fill="#112148"/><g><g transform="translate(.000001 0.000001)"><rect id="e3vpdCImahb108" width="225.71" height="225.71" rx="112.85" ry="112.85" transform="translate(-14.005001 1100.824999)" fill="#ffb201"/><rect id="e3vpdCImahb109" width="225.71" height="225.71" rx="112.85" ry="112.85" transform="translate(211.774999 874.974999)" fill="#ffb201"/><rect id="e3vpdCImahb110" width="225.71" height="225.71" rx="112.85" ry="112.85" transform="translate(211.774999 1100.824999)" fill="#ffb201"/><rect id="e3vpdCImahb111" width="225.71" height="225.71" rx="112.85" ry="112.85" transform="translate(-13.710001 875.199999)" fill="#ffb201"/></g></g><clipPath id="e3vpdCImahb112"><rect width="225.85" height="225.85" rx="0" ry="0" transform="translate(98.85 987.9)" fill="none"/></clipPath></g><g mask="url(#e3vpdCImahb151)"><g id="e3vpdCImahb115" transform="translate(.000001 1.715011)"><path d="M548.74,874v.1c.000001,39.885131-21.278463,76.740512-55.82,96.683078s-77.098464,19.942566-111.640001,0-55.82-56.797947-55.819999-96.683078v-.1Z" fill="#1a76f3"/><path d="M548.74,874h-223.28c0-61.657069,49.982931-111.64,111.64-111.64s111.64,49.982931,111.64,111.64Z" fill="#112148"/></g><g id="e3vpdCImahb118" transform="translate(229.77094 1.715011)"><path d="M548.74,874v.1c.000001,39.885131-21.278463,76.740512-55.82,96.683078s-77.098464,19.942566-111.640001,0-55.82-56.797947-55.819999-96.683078v-.1Z" fill="#1a76f3"/><path d="M548.74,874h-223.28c0-61.657069,49.982931-111.64,111.64-111.64s111.64,49.982931,111.64,111.64Z" fill="#112148"/></g><g id="e3vpdCImahb121" transform="translate(229.77094 1.715011)"><path d="M548.74,874v.1c.000001,39.885131-21.278463,76.740512-55.82,96.683078s-77.098464,19.942566-111.640001,0-55.82-56.797947-55.819999-96.683078v-.1Z" fill="#1a76f3"/><path d="M548.74,874h-223.28c0-61.657069,49.982931-111.64,111.64-111.64s111.64,49.982931,111.64,111.64Z" fill="#112148"/></g><g transform="translate(229.77094 1.715011)"><path d="M548.74,874v.1c.000001,39.885131-21.278463,76.740512-55.82,96.683078s-77.098464,19.942566-111.640001,0-55.82-56.797947-55.819999-96.683078v-.1Z" fill="#1a76f3"/><path d="M548.74,874h-223.28c0-61.657069,49.982931-111.64,111.64-111.64s111.64,49.982931,111.64,111.64Z" fill="#112148"/></g><g transform="translate(229.77094 1.715011)"><path d="M548.74,874v.1c.000001,39.885131-21.278463,76.740512-55.82,96.683078s-77.098464,19.942566-111.640001,0-55.82-56.797947-55.819999-96.683078v-.1Z" fill="#1a76f3"/><path d="M548.74,874h-223.28c0-61.657069,49.982931-111.64,111.64-111.64s111.64,49.982931,111.64,111.64Z" fill="#112148"/></g><g transform="translate(229.77094 1.715011)"><path d="M548.74,874v.1c.000001,39.885131-21.278463,76.740512-55.82,96.683078s-77.098464,19.942566-111.640001,0-55.82-56.797947-55.819999-96.683078v-.1Z" fill="#1a76f3"/><path d="M548.74,874h-223.28c0-61.657069,49.982931-111.64,111.64-111.64s111.64,49.982931,111.64,111.64Z" fill="#112148"/></g><g transform="translate(229.77094 1.715011)"><path d="M548.74,874v.1c.000001,39.885131-21.278463,76.740512-55.82,96.683078s-77.098464,19.942566-111.640001,0-55.82-56.797947-55.819999-96.683078v-.1Z" fill="#1a76f3"/><path d="M548.74,874h-223.28c0-61.657069,49.982931-111.64,111.64-111.64s111.64,49.982931,111.64,111.64Z" fill="#112148"/></g><g transform="translate(229.77094 1.715011)"><path d="M548.74,874v.1c.000001,39.885131-21.278463,76.740512-55.82,96.683078s-77.098464,19.942566-111.640001,0-55.82-56.797947-55.819999-96.683078v-.1Z" fill="#1a76f3"/><path d="M548.74,874h-223.28c0-61.657069,49.982931-111.64,111.64-111.64s111.64,49.982931,111.64,111.64Z" fill="#112148"/></g><g transform="translate(229.77094 1.715011)"><path d="M548.74,874v.1c.000001,39.885131-21.278463,76.740512-55.82,96.683078s-77.098464,19.942566-111.640001,0-55.82-56.797947-55.819999-96.683078v-.1Z" fill="#1a76f3"/><path d="M548.74,874h-223.28c0-61.657069,49.982931-111.64,111.64-111.64s111.64,49.982931,111.64,111.64Z" fill="#112148"/></g><g transform="translate(229.77094 1.715011)"><path d="M548.74,874v.1c.000001,39.885131-21.278463,76.740512-55.82,96.683078s-77.098464,19.942566-111.640001,0-55.82-56.797947-55.819999-96.683078v-.1Z" fill="#1a76f3"/><path d="M548.74,874h-223.28c0-61.657069,49.982931-111.64,111.64-111.64s111.64,49.982931,111.64,111.64Z" fill="#112148"/></g><g transform="translate(229.77094 1.715011)"><path d="M548.74,874v.1c.000001,39.885131-21.278463,76.740512-55.82,96.683078s-77.098464,19.942566-111.640001,0-55.82-56.797947-55.819999-96.683078v-.1Z" fill="#1a76f3"/><path d="M548.74,874h-223.28c0-61.657069,49.982931-111.64,111.64-111.64s111.64,49.982931,111.64,111.64Z" fill="#112148"/></g><g transform="translate(229.77094 1.715011)"><path d="M548.74,874v.1c.000001,39.885131-21.278463,76.740512-55.82,96.683078s-77.098464,19.942566-111.640001,0-55.82-56.797947-55.819999-96.683078v-.1Z" fill="#1a76f3"/><path d="M548.74,874h-223.28c0-61.657069,49.982931-111.64,111.64-111.64s111.64,49.982931,111.64,111.64Z" fill="#112148"/></g><mask id="e3vpdCImahb151" mask-type="luminance" x="-150%" y="-150%" height="400%" width="400%"><rect width="225.85" height="225.85" rx="0" ry="0" transform="translate(324.699999 762.05)" fill="#fff"/></mask></g></g><clipPath id="e3vpdCImahb153"><rect width="452.01" height="452.01" rx="10.65" ry="10.65" transform="translate(98.85 762.05)" fill="none"/></clipPath></g></g>
<script><![CDATA[
(function(s,i,u,o,c,w,d,t,n,x,e,p,a,b){(a=Array.from(d.querySelectorAll('svg#' + i.root)).filter(n=> !n.svgatorPlayer)[0]||{}).svgatorPlayer={ready:(function(a){b=[];return function(c){return c?(b.push(c),a.svgatorPlayer):b}})(a)};w[o]=w[o]||{};w[o][s]=w[o][s]||[];w[o][s].push(i);e=d.createElementNS(n,t);e.async=true;e.setAttributeNS(x,'href',[u,s,'.','j','s','?','v','=',c].join(''));e.setAttributeNS(null,'src',[u,s,'.','j','s','?','v','=',c].join(''));p=d.getElementsByTagName(t)[0];p.parentNode.insertBefore(e,p);})('91c80d77',{"root":"e3vpdCImahb1","version":"2022-05-04","animations":[{"elements":{"e3vpdCImahb8":{"transform":{"data":{"o":{"x":349.707787,"y":393.400027,"type":"corner"},"t":{"x":-351.147335,"y":-393.40002}},"keys":{"r":[{"t":0,"v":0,"e":[0.075,0.82,0.165,1]},{"t":500,"v":5.798825},{"t":1600,"v":5.798825,"e":[0.075,0.82,0.165,1]},{"t":2100,"v":0,"e":[0.075,0.82,0.165,1]}]}}},"e3vpdCImahb9":{"transform":{"data":{"o":{"x":342.349727,"y":407.39336,"type":"corner"},"s":{"x":1.000001,"y":1.000001},"t":{"x":-24.49691,"y":-24.426451}},"keys":{"r":[{"t":0,"v":-17.54164,"e":[0.075,0.82,0.165,1]},{"t":500,"v":-22.410003},{"t":1600,"v":-22.410003,"e":[0.075,0.82,0.165,1]},{"t":2100,"v":-17.54164,"e":[0.175,0.885,0.32,1.275]}]}}},"e3vpdCImahb10":{"transform":{"data":{"t":{"x":-368.895304,"y":-508.761815}},"keys":{"o":[{"t":0,"v":{"x":368.895304,"y":508.761815,"type":"corner"},"e":[0.075,0.82,0.165,1]},{"t":500,"v":{"x":368.693232,"y":506.772049,"type":"corner"}},{"t":1600,"v":{"x":368.693232,"y":506.772049,"type":"corner"},"e":[0.075,0.82,0.165,1]},{"t":2100,"v":{"x":368.895304,"y":508.761815,"type":"corner","start":{"x":368.895304,"y":508.761815},"end":{"x":368.895304,"y":508.761815}},"e":[0.075,0.82,0.165,1]}],"r":[{"t":0,"v":0,"e":[0.075,0.82,0.165,1]},{"t":500,"v":-5.929145},{"t":1600,"v":-5.929145,"e":[0.075,0.82,0.165,1]},{"t":2100,"v":0,"e":[0.075,0.82,0.165,1]}]}}},"e3vpdCImahb24":{"transform":{"data":{"t":{"x":-312.085768,"y":-404.835722}},"keys":{"o":[{"t":0,"v":{"x":312.085768,"y":404.835722,"type":"corner"},"e":[0.175,0.885,0.32,1.275]},{"t":500,"v":{"x":312.085768,"y":402.085964,"type":"corner"}},{"t":1600,"v":{"x":312.085768,"y":402.085964,"type":"corner"},"e":[0.175,0.885,0.32,1.275]},{"t":2100,"v":{"x":312.085768,"y":405.085964,"type":"corner"},"e":[0.175,0.885,0.32,1.275]}],"r":[{"t":0,"v":0,"e":[0.175,0.885,0.32,1.275]},{"t":500,"v":-6.711902},{"t":1600,"v":-6.711902,"e":[0.175,0.885,0.32,1.275]},{"t":2100,"v":0,"e":[0.175,0.885,0.32,1.275]}]}}},"e3vpdCImahb25":{"transform":{"data":{"t":{"x":-267.836509,"y":-497.548594}},"keys":{"o":[{"t":0,"v":{"x":275.836509,"y":502.227694,"type":"corner"},"e":[0.175,0.885,0.32,1.275]},{"t":500,"v":{"x":287.836509,"y":502.548596,"type":"corner"}},{"t":1600,"v":{"x":287.836509,"y":502.548596,"type":"corner"},"e":[0.175,0.885,0.32,1.275]},{"t":2100,"v":{"x":275.836509,"y":502.548596,"type":"corner","start":{"x":275.836509,"y":502.548596},"end":{"x":275.836509,"y":502.548596}},"e":[0.175,0.885,0.32,1.275]}],"r":[{"t":0,"v":2.770863,"e":[0.175,0.885,0.32,1.275]},{"t":500,"v":0},{"t":1600,"v":0,"e":[0.175,0.885,0.32,1.275]},{"t":2100,"v":2.770863,"e":[0.175,0.885,0.32,1.275]}]}}},"e3vpdCImahb28":{"transform":{"data":{"o":{"x":386.97178,"y":507.718005,"type":"corner"},"s":{"x":-1.16284,"y":1.16284},"t":{"x":-73.08824,"y":-53.373987}},"keys":{"r":[{"t":0,"v":-9.645568},{"t":200,"v":7.476567},{"t":1600,"v":7.476567},{"t":2100,"v":-9.645568}]}}},"e3vpdCImahb30":{"transform":{"data":{"o":{"x":65.725871,"y":45.270145,"type":"corner"},"t":{"x":-65.525586,"y":-45.499428}},"keys":{"r":[{"t":0,"v":-15.60783},{"t":800,"v":-7.254451},{"t":1000,"v":-18.207739},{"t":1200,"v":-6.469573},{"t":1600,"v":-15.60783}]}}},"e3vpdCImahb32":{"transform":{"data":{"o":{"x":53.422123,"y":40.434963,"type":"corner"},"t":{"x":-10.291016,"y":-3.395531}},"keys":{"r":[{"t":800,"v":5.425885},{"t":1000,"v":-3.443347},{"t":1200,"v":22.640007},{"t":1600,"v":22.640007},{"t":2100,"v":5.425885}]}}},"e3vpdCImahb35":{"transform":{"data":{"o":{"x":61.768277,"y":47.28438,"type":"corner"},"t":{"x":-59.268654,"y":-46.756282}},"keys":{"r":[{"t":0,"v":-15.354356},{"t":600,"v":0},{"t":800,"v":-35.32036},{"t":1200,"v":0},{"t":1400,"v":0},{"t":1600,"v":-15.354356}]}}},"e3vpdCImahb37":{"transform":{"data":{"o":{"x":41.939901,"y":41.597161,"type":"corner"},"t":{"x":-12.145381,"y":-3.353842}},"keys":{"r":[{"t":200,"v":-0.68155},{"t":600,"v":-16.111818},{"t":800,"v":-20.97039},{"t":1200,"v":11.020884},{"t":1400,"v":11.020884},{"t":1600,"v":-0.68155}]}}},"e3vpdCImahb41":{"transform":{"data":{"o":{"x":58.58561,"y":49.814711,"type":"corner"},"t":{"x":-59.576505,"y":-46.891215}},"keys":{"r":[{"t":0,"v":-3.32003},{"t":400,"v":4.944298},{"t":600,"v":-18.312725},{"t":800,"v":4.944298},{"t":1000,"v":-18.312725},{"t":1200,"v":4.944298},{"t":1600,"v":-3.32003}]}}},"e3vpdCImahb43":{"transform":{"data":{"o":{"x":43.978202,"y":45.041145,"type":"corner"},"t":{"x":-13.794585,"y":-3.356709}},"keys":{"r":[{"t":400,"v":-10},{"t":600,"v":-28.597306},{"t":800,"v":-10},{"t":1000,"v":-28.597306},{"t":1200,"v":-10},{"t":1600,"v":-10}]}}},"e3vpdCImahb45":{"transform":{"data":{"o":{"x":63.599582,"y":56.339114,"type":"corner"},"t":{"x":-60.430649,"y":-53.606383}},"keys":{"r":[{"t":200,"v":2.433221},{"t":400,"v":-5.392438},{"t":600,"v":-2.60516},{"t":1600,"v":6.142297},{"t":2100,"v":1.383216}]}}},"e3vpdCImahb53":{"transform":{"data":{"o":{"x":333.286592,"y":385.297597,"type":"corner"},"t":{"x":-333.286592,"y":-385.297596}},"keys":{"r":[{"t":0,"v":0,"e":[0.075,0.82,0.165,1]},{"t":500,"v":10.31399,"e":[0.835,0,0.925,0.18]},{"t":1600,"v":10.31399,"e":[0.075,0.82,0.165,1]},{"t":2100,"v":0,"e":[0.435,0,0.61,0.425]}]}}},"e3vpdCImahb58":{"transform":{"data":{"o":{"x":336.163785,"y":363.335374,"type":"corner"},"t":{"x":-455.976577,"y":-440.090444}},"keys":{"r":[{"t":0,"v":-12.431284,"e":[0.075,0.82,0.165,1]},{"t":510,"v":0,"e":[0.835,0,0.925,0.18]},{"t":1600,"v":0,"e":[0.075,0.82,0.165,1]},{"t":2100,"v":-12.431284,"e":[0.435,0,0.61,0.425]}]}}},"e3vpdCImahb61":{"stroke-dashoffset":[{"t":0,"v":10,"e":[0.075,0.82,0.165,1]},{"t":500,"v":0},{"t":1600,"v":0,"e":[0.075,0.82,0.165,1]},{"t":2100,"v":10,"e":[0.075,0.82,0.165,1]}]},"e3vpdCImahb62":{"transform":{"data":{"o":{"x":441.201315,"y":401.840132,"type":"corner"},"t":{"x":-441.201315,"y":-401.840132}},"keys":{"r":[{"t":0,"v":-1.415365,"e":[0.075,0.82,0.165,1]},{"t":500,"v":6.912551,"e":[0.835,0,0.925,0.18]},{"t":1600,"v":6.912551,"e":[0.075,0.82,0.165,1]},{"t":2100,"v":-1.415365,"e":[0.075,0.82,0.165,1]}]}}},"e3vpdCImahb73":{"transform":{"data":{"t":{"x":-111.645007,"y":-111.645016}},"keys":{"o":[{"t":1410,"v":{"x":211.775007,"y":874.975016,"type":"corner"},"e":[0.39,0.575,0.565,1]},{"t":1910,"v":{"x":106.123698,"y":769.808698,"type":"corner"}}],"s":[{"t":1410,"v":{"x":1,"y":1},"e":[0.39,0.575,0.565,1]},{"t":1910,"v":{"x":0,"y":0}}]}}},"e3vpdCImahb74":{"transform":{"data":{"t":{"x":-111.645007,"y":-111.645016}},"keys":{"o":[{"t":1410,"v":{"x":323.420007,"y":986.620016,"type":"corner"},"e":[0.39,0.575,0.565,1]},{"t":1910,"v":{"x":211.775007,"y":874.975016,"type":"corner"}},{"t":2410,"v":{"x":211.775007,"y":874.975016,"type":"corner","start":{"x":211.775007,"y":874.975016},"end":{"x":211.775007,"y":874.975016}},"e":[0.39,0.575,0.565,1]},{"t":2910,"v":{"x":106.123698,"y":769.808698,"type":"corner"}}],"s":[{"t":1410,"v":{"x":0,"y":0},"e":[0.39,0.575,0.565,1]},{"t":1910,"v":{"x":1,"y":1}},{"t":2410,"v":{"x":1,"y":1},"e":[0.39,0.575,0.565,1]},{"t":2910,"v":{"x":0,"y":0}}]}}},"e3vpdCImahb75":{"transform":{"data":{"t":{"x":-111.645007,"y":-111.645016}},"keys":{"o":[{"t":2410,"v":{"x":323.420007,"y":986.620016,"type":"corner"},"e":[0.39,0.575,0.565,1]},{"t":2910,"v":{"x":211.775007,"y":874.975016,"type":"corner"}},{"t":3410,"v":{"x":211.775007,"y":874.975016,"type":"corner","start":{"x":211.775007,"y":874.975016},"end":{"x":211.775007,"y":874.975016}},"e":[0.39,0.575,0.565,1]}],"s":[{"t":2410,"v":{"x":0,"y":0},"e":[0.39,0.575,0.565,1]},{"t":2910,"v":{"x":1,"y":1}},{"t":3410,"v":{"x":1,"y":1},"e":[0.39,0.575,0.565,1]}]}}},"e3vpdCImahb99":{"transform":{"data":{"o":{"x":324.855001,"y":1101.204956,"type":"corner"},"t":{"x":-112.855002,"y":-112.854956}},"keys":{"s":[{"t":1410,"v":{"x":1,"y":1},"e":[0.39,0.575,0.565,1]},{"t":1910,"v":{"x":0,"y":0}},{"t":2410,"v":{"x":0,"y":0},"e":[0.39,0.575,0.565,1]},{"t":2910,"v":{"x":1,"y":1}},{"t":3410,"v":{"x":1,"y":1},"e":[0.39,0.575,0.565,1]}]}}},"e3vpdCImahb100":{"transform":{"data":{"o":{"x":550.48,"y":1101.204956,"type":"corner"},"t":{"x":-112.855002,"y":-112.854956}},"keys":{"s":[{"t":1410,"v":{"x":1,"y":1},"e":[0.39,0.575,0.565,1]},{"t":1910,"v":{"x":0,"y":0}},{"t":2410,"v":{"x":0,"y":0},"e":[0.39,0.575,0.565,1]},{"t":2910,"v":{"x":1,"y":1}},{"t":3410,"v":{"x":1,"y":1},"e":[0.39,0.575,0.565,1]}]}}},"e3vpdCImahb101":{"transform":{"data":{"o":{"x":437.099998,"y":1101.204956,"type":"corner"},"t":{"x":-112.855002,"y":-112.854956}},"keys":{"s":[{"t":1410,"v":{"x":0,"y":0},"e":[0.39,0.575,0.565,1]},{"t":1910,"v":{"x":1,"y":1}},{"t":2410,"v":{"x":1,"y":1},"e":[0.39,0.575,0.565,1]},{"t":2910,"v":{"x":0,"y":0}},{"t":3410,"v":{"x":0,"y":0},"e":[0.39,0.575,0.565,1]}]}}},"e3vpdCImahb108":{"transform":{"data":{"t":{"x":-112.855004,"y":-112.854956}},"keys":{"o":[{"t":1410,"v":{"x":98.850003,"y":1213.679955,"type":"corner"},"e":[0.39,0.575,0.565,1]},{"t":1910,"v":{"x":324.630003,"y":1213.749955,"type":"corner","start":{"x":324.630003,"y":1213.749955},"end":{"x":324.630003,"y":1213.749955}}},{"t":2410,"v":{"x":324.630003,"y":1213.749955,"type":"corner","start":{"x":324.630003,"y":1213.749955},"end":{"x":324.630003,"y":1213.749955}},"e":[0.39,0.575,0.565,1]},{"t":2910,"v":{"x":324.630003,"y":987.899955,"type":"corner","start":{"x":324.630003,"y":987.899955},"end":{"x":324.630003,"y":987.899955}}},{"t":3410,"v":{"x":324.630003,"y":987.899955,"type":"corner","start":{"x":324.630003,"y":987.899955},"end":{"x":324.630003,"y":987.899955}},"e":[0.39,0.575,0.565,1]}]}}},"e3vpdCImahb109":{"transform":{"data":{"t":{"x":-112.855013,"y":-112.854956}},"keys":{"o":[{"t":1410,"v":{"x":324.630012,"y":987.829955,"type":"corner"},"e":[0.39,0.575,0.565,1]},{"t":1910,"v":{"x":98.920013,"y":987.969955,"type":"corner","start":{"x":98.920013,"y":987.969955},"end":{"x":98.920013,"y":987.969955}}},{"t":2410,"v":{"x":98.920013,"y":987.969955,"type":"corner","start":{"x":98.920013,"y":987.969955},"end":{"x":98.920013,"y":987.969955}},"e":[0.39,0.575,0.565,1]},{"t":2910,"v":{"x":98.920013,"y":1213.609955,"type":"corner","start":{"x":98.920013,"y":1213.609955},"end":{"x":98.920013,"y":1213.609955}}},{"t":3410,"v":{"x":98.920013,"y":1213.609955,"type":"corner","start":{"x":98.920013,"y":1213.609955},"end":{"x":98.920013,"y":1213.609955}},"e":[0.39,0.575,0.565,1]}]}}},"e3vpdCImahb110":{"transform":{"data":{"t":{"x":-112.855013,"y":-112.854956}},"keys":{"o":[{"t":1410,"v":{"x":324.630012,"y":1213.679955,"type":"corner"},"e":[0.39,0.575,0.565,1]},{"t":1910,"v":{"x":324.545737,"y":987.969955,"type":"corner","start":{"x":324.545737,"y":987.969955},"end":{"x":324.545737,"y":987.969955}}},{"t":2410,"v":{"x":324.545737,"y":987.969955,"type":"corner","start":{"x":324.545737,"y":987.969955},"end":{"x":324.545737,"y":987.969955}},"e":[0.39,0.575,0.565,1]},{"t":2910,"v":{"x":98.920012,"y":987.899955,"type":"corner","start":{"x":98.920012,"y":987.899955},"end":{"x":98.920012,"y":987.899955}}},{"t":3410,"v":{"x":98.920012,"y":987.899955,"type":"corner","start":{"x":98.920012,"y":987.899955},"end":{"x":98.920012,"y":987.899955}},"e":[0.39,0.575,0.565,1]}]}}},"e3vpdCImahb111":{"transform":{"data":{"t":{"x":2.359446,"y":0}},"keys":{"o":[{"t":1410,"v":{"x":-16.069447,"y":875.199999,"type":"corner"},"e":[0.39,0.575,0.565,1]},{"t":1910,"v":{"x":-16.378722,"y":1100.879272,"type":"corner","start":{"x":-16.378722,"y":1100.879272},"end":{"x":-16.378722,"y":1100.879272}}},{"t":2410,"v":{"x":-16.378722,"y":1100.879272,"type":"corner","start":{"x":-16.378722,"y":1100.879272},"end":{"x":-16.378722,"y":1100.879272}},"e":[0.39,0.575,0.565,1]},{"t":2910,"v":{"x":209.485553,"y":1100.894999,"type":"corner","start":{"x":209.485553,"y":1100.894999},"end":{"x":209.485553,"y":1100.894999}}},{"t":3410,"v":{"x":209.485553,"y":1100.894999,"type":"corner","start":{"x":209.485553,"y":1100.894999},"end":{"x":209.485553,"y":1100.894999}},"e":[0.39,0.575,0.565,1]}]}}},"e3vpdCImahb115":{"transform":{"data":{"t":{"x":-437.09999,"y":-874.049987}},"keys":{"o":[{"t":1410,"v":{"x":437.099991,"y":875.764998,"type":"corner"}},{"t":1910,"v":{"x":437.099991,"y":875.764998,"type":"corner"}},{"t":2410,"v":{"x":211.005001,"y":875.764998,"type":"corner"}}],"r":[{"t":1410,"v":0,"e":[0.39,0.575,0.565,1]},{"t":1910,"v":180}]}}},"e3vpdCImahb118":{"transform":{"data":{"t":{"x":-437.09999,"y":-874.049987}},"keys":{"o":[{"t":1910,"v":{"x":666.87093,"y":875.764998,"type":"corner"}},{"t":2410,"v":{"x":437.099991,"y":875.764998,"type":"corner"}},{"t":2910,"v":{"x":437.099991,"y":875.764998,"type":"corner","start":{"x":437.099991,"y":875.764998},"end":{"x":437.099991,"y":875.764998}}},{"t":3410,"v":{"x":204.292002,"y":875.764998,"type":"corner","start":{"x":204.292002,"y":875.764998},"end":{"x":204.292002,"y":875.764998}}}],"r":[{"t":2410,"v":0,"e":[0.39,0.575,0.565,1]},{"t":2910,"v":180}]}}},"e3vpdCImahb121":{"transform":{"data":{"t":{"x":-437.09999,"y":-874.049987}},"keys":{"o":[{"t":2910,"v":{"x":666.87093,"y":875.764998,"type":"corner"}},{"t":3410,"v":{"x":437.099991,"y":875.764998,"type":"corner"}}]}}}},"s":"MDAA1ZGEwUTQ3OBDk5YTk3ODY5IOThlOTQ5MzQA3NWZYNTg1OTNU1NTU1MUs0NTzg5OGU5NzhhXODg5OVU4ZTkQ0OTM0NzVmNTAY1MVI0NzhlODTk4YTk3ODY5COUg4ZTk0VTkRzOTg0N0E1ZjUU1NTE0NzhiOFGVTOTE5MTQ3CNWY1NjUxNDcG4NjkxOTk4YTWk3OTNGODY5OPThhNDdUNWY4IYk44NjkxOThGBOGE1MVg0NzWk4OTU4YThhOUDk0NzVmNTY1RMTQ3OGI5NTkP4VDQ3NWY1NjUU1NTVHYTI/"}],"options":"MDVAxZTk0M2I4YSzhkN2E4YjhkFM2JCNTMzYjhBjN2M4Yjg4ODXU4NTNiNDUzYBjhjN2NBOGI4DOEw4NTg1M2IV1MzRiNGU5NgP|"},'https://cdn.svgator.com/ply/','__SVGATOR_PLAYER__','2022-05-04',window,document,'script','http://www.w3.org/2000/svg','http://www.w3.org/1999/xlink')
]]></script>
</svg>
